<?xml version="1.0" encoding="UTF-8"?>
<!-- Generator: Adobe Illustrator 19.0.0, SVG Export Plug-In . SVG Version: 6.00 Build 0)  -->
<!DOCTYPE svg PUBLIC "-//W3C//DTD SVG 1.1//EN" "http://www.w3.org/Graphics/SVG/1.1/DTD/svg11.dtd">
<svg version="1.1" id="svg2" xmlns:x="http://ns.adobe.com/Extensibility/1.0/" xmlns:i="http://ns.adobe.com/AdobeIllustrator/10.0/" xmlns:graph="http://ns.adobe.com/Graphs/1.0/" xmlns:inkscape="http://www.inkscape.org/namespaces/inkscape" xmlns:sodipodi="http://sodipodi.sourceforge.net/DTD/sodipodi-0.dtd" xmlns:rdf="http://www.w3.org/1999/02/22-rdf-syntax-ns#" xmlns:dc="http://purl.org/dc/elements/1.1/" xmlns:svg="http://www.w3.org/2000/svg" xmlns:cc="http://creativecommons.org/ns#" inkscape:output_extension="org.inkscape.output.svg.inkscape" sodipodi:docname="Logo Labour Partei.svg" inkscape:version="0.46" sodipodi:version="0.32" xmlns="http://www.w3.org/2000/svg" xmlns:xlink="http://www.w3.org/1999/xlink" x="0px" y="0px" viewBox="-37.0000916 376.5385437 867.0001221 159.587677" style="enable-background:new -37.0000916 376.5385437 867.0001221 159.587677;" xml:space="preserve">
<style type="text/css">
	.st0{fill:#DC241F;}
</style>
<switch>
	<g i:extraneous="self">
		<defs>
			
			
				<inkscape:perspective sodipodi:type="inkscape:persp3d" id="perspective10" inkscape:vp_x="0 : 526.18109 : 1" inkscape:vp_z="744.09448 : 526.18109 : 1" inkscape:vp_y="0 : 1000 : 0" inkscape:persp3d-origin="372.04724 : 350.78739 : 1">
				</inkscape:perspective>
			
				<inkscape:perspective sodipodi:type="inkscape:persp3d" id="perspective2410" inkscape:vp_x="0 : 526.18109 : 1" inkscape:vp_z="744.09448 : 526.18109 : 1" inkscape:vp_y="0 : 1000 : 0" inkscape:persp3d-origin="372.04724 : 350.78739 : 1">
				</inkscape:perspective>
		</defs>
		
			<sodipodi:namedview borderopacity="1.0" inkscape:cy="2120.3026" showgrid="false" bordercolor="#666666" inkscape:cx="2391.4382" pagecolor="#ffffff" id="base" inkscape:zoom="0.12374369" inkscape:window-y="-8" inkscape:window-x="-8" inkscape:window-height="750" inkscape:window-width="1280" inkscape:current-layer="layer1" inkscape:document-units="px" inkscape:pageshadow="2" inkscape:pageopacity="0.0">
			</sodipodi:namedview>
		<g id="layer1" transform="translate(-2007.7424,-813.39883)" inkscape:label="Ebene 1" inkscape:groupmode="layer">
			<g id="g3316" transform="matrix(3.6066768,0,0,3.6066768,2657.0531,-2304.5166)">
				<g id="g2564" transform="matrix(1.25,0,0,-1.25,-168.88604,891.13798)">
					<path id="path2566" class="st0" d="M-5.0254922-96.7060699c-0.2077184-0.0469589-0.3775063-0.202301-0.5003309-0.3522186       h3.0886874c-0.3160937,0.5942535-0.6972122,1.3366241-0.7423687,1.5515671       C-3.1795044-95.5067215-4.5937982-96.6067276-5.0254922-96.7060699"/>
				</g>
				<g id="g2568" transform="matrix(1.25,0,0,-1.25,-172.16278,890.37628)">
					<path id="path2570" class="st0" d="M-7.1389852-96.2147598c0.0198689,0.3142853,0,1.376358-0.1968808,1.6111755       c0,0-0.1174064-0.6484451-0.2149439-0.8651962c-0.0668311-0.1445007-0.6249628-1.3980331-0.980794-2.2000122h1.7918       c-0.0505748,0.1499176-0.1137934,0.3251266-0.1625624,0.431694       C-7.0017099-97.0203476-7.1588535-96.5290451-7.1389852-96.2147598"/>
				</g>
				<g id="g2572" transform="matrix(1.25,0,0,-1.25,-137.02591,888.01528)">
					<path id="path2574" class="st0" d="M15.5243006-94.6919022L3.7800624-94.7045441       c-0.3937626,0-0.7116628,0.3197021-0.7116628,0.7116623L3.0593681-65.4613571       c0,0.3937607-0.3197062,0.7134705-0.7134688,0.7134705h-4.4993687c-0.3937633,0-0.7116628-0.3197098-0.7116628-0.7134705       V-98.727066c0-0.3937607,0.3178995-0.7134628,0.7116628-0.7134628h2.7310505       c0.0577992-0.0126495,0.1137933-0.0234833,0.1752048-0.0234833h14.7715149       c0.3937626,0,0.7134695,0.3197021,0.7134695,0.7134705v3.3469772       C16.2377701-95.0116043,15.9180632-94.6919022,15.5243006-94.6919022"/>
				</g>
				<g id="g2576" transform="matrix(1.25,0,0,-1.25,-60.117406,882.59658)">
					<path id="path2578" class="st0" d="M65.1302948-91.1968384v14.1700363c0,0.3937607,0.3179016,0.7134628,0.7116623,0.7134628       h4.232048c0.3955688,0,0.7134628-0.3197021,0.7134628-0.7134628v-16.5723495v-9.7140121       c0-0.3937607-0.317894-0.7116623-0.7134628-0.7116623h-1.873085c0,0-0.5707779,0.0867004-0.814621,0.7784958       c-0.2438431,0.6917877-0.5292282,1.7918015-0.5292282,1.7918015s-0.2835846,1.3022995-1.0584641,0.4461365       c-0.7730713-0.8543549-4.1417313-3.4824448-10.7056427-3.4192276       c-10.4581909,0.1029587-9.8856087,10.4563828-9.8856087,12.6455536v14.8600235       c0,0.3937607,0.319706,0.7134705,0.7134705,0.7134705h4.2320442c0.3937607,0,0.7116623-0.3197098,0.7116623-0.7134705       v-15.1508255c0-1.8008347-0.1517258-7.4923248,6.4157982-7.4923248       C63.3619766-99.5651932,64.9532852-96.7438354,65.1302948-91.1968384"/>
				</g>
				<g id="g2580" transform="matrix(1.25,0,0,-1.25,-50.619786,874.19758)">
					<path id="path2582" class="st0" d="M71.2562637-85.7794876c-0.7730789-0.8543625-1.0584641,0.4479446-1.0584641,0.4479446       s-0.2835846,1.0982056-0.5292358,1.7918015c-0.2438431,0.6917953-0.8146133,0.7784958-0.8146133,0.7784958h-1.873085       c-0.3937607,0-0.7134705-0.3197098-0.7134705-0.7134705l-0.0523758-26.4850464       c0-0.3919525,0.3197021-0.7116623,0.7134628-0.7116623h4.232048c0.3919525,0,0.7116623,0.3197098,0.7116623,0.7116623       v16.5741501c0.1896591,1.307724,0.9536972,5.2525787,5.2001953,5.7836151       c1.5569839,0.195076,2.3842468,0.0487671,2.3842468,0.0487671c0.7297287,0,1.1180725,0.0975418,1.1180725,0.9248047       c0,0.8254547-0.0469666,3.2584763-0.0469666,3.2584763s-0.0505753,1.071106-1.0223389,1.0223312       c-0.9735641-0.0487671-4.4271164-0.2926102-6.0328751-1.410675       C71.8667755-84.8781738,71.2562637-85.7794876,71.2562637-85.7794876"/>
				</g>
				<g id="g2584" transform="matrix(1.25,0,0,-1.25,-119.27291,873.6992)">
					<path id="path2586" class="st0" d="M26.974987-85.4580536c-3.1934509,3.1212006-9.8296127,2.7978821-9.8296127,2.7978821       C4.3372536-82.2646027,4.8755169-91.4855118,4.8755169-91.4855118l-0.0036139-0.7604294       c0-0.3937607,0.3197064-0.7134705,0.7134695-0.7134705h4.0911574c0.3937616,0,0.7116623,0.3197098,0.7116623,0.7134705       l0.0686359,0.8579712c0,0,0.4768515,4.3675079,6.4374762,4.1001816       c6.4212189-0.2871933,6.8167877-2.6913071,7.1383018-5.5975647c0,0,0.0361233-0.6087036-0.466013-0.7170792       c-0.5021381-0.106575-11.4444008-0.8977127-15.7848206-2.7978821       c-4.3422241-1.9019852-3.8762128-6.2424011-3.8762128-6.7445374s-0.2131376-7.7903595,11.0867643-8.0378189       c6.5657187-0.1426926,9.865737,3.5890198,9.865737,3.5890198c0.2871952,0.2871933,0.5743885,0.5364609,0.8615818-0.1445007       c0.2871933-0.680954,0.5743885-3.0489502,1.4702873-3.1212006c0.897707-0.0722427,1.7231636-0.0361252,1.7231636-0.0361252       s0.8958988-0.0361176,0.8958988,0.7893372S29.7728691-93.78125,29.7728691-93.78125       S29.9715557-88.3877945,26.974987-85.4580536 M24.0326061-99.2343216c0,0-0.0343189-0.7170868-0.1788197-1.8297348       c-0.3702812-2.8683243-2.9423809-5.2742462-6.4934692-5.5975647c-3.5528936-0.3233185-7.3189259,0.5021362-7.4977446,3.9466553       c-0.1806259,3.444519,6.4212198,3.7299042,7.4616194,3.8744049s4.6583195,0.5256195,5.9190826,0.6105118       C23.7815361-98.193924,24.1048546-98.4811172,24.0326061-99.2343216"/>
				</g>
				<g id="g2588" transform="matrix(1.25,0,0,-1.25,-104.49941,871.97495)">
					<path id="path2590" class="st0" d="M36.5038948-84.3459167c-6.5946178,0.0812836-8.8741074-2.7689819-8.8741074-2.7689819       s-0.8958988-0.9753723-0.8146172,0.2438431c0.0812817,1.2228317-0.0650253,8.3665543-0.0650253,8.3665543       c0,0.3937607-0.3179016,0.7134705-0.7116623,0.7134705h-4.2320442c-0.3937626,0-0.7134686-0.3197098-0.7134686-0.7134705       v-33.2639084c0-0.3937607,0.319706-0.7134628,0.7134686-0.7134628h1.8748875c0,0,0.5689678,0.0867004,0.8128128,0.7802963       c0.2456493,0.6899872,0.5292301,1.7899933,0.5292301,1.7899933s0.2853889,1.3041153,1.0584641,0.4479523       c0.7730751-0.8543549,4.1525688-3.7859039,10.7074509-3.4192276c6.5530739,0.3666687,11.2764206,4.436142,11.195137,14.4518051       C47.903141-88.4172058,43.0985146-84.4272003,36.5038948-84.3459167 M42.1213341-99.0831146       c-0.0397377-1.8315353,0.5328445-9.1956177-7.9782066-9.0366669c-6.554882,0.1228256-7.4092388,4.6402588-7.4507828,9.1594925       c-0.0505753,5.6192474,1.1812878,9.9325714,7.9800148,9.8097458       C41.4710846-89.2715607,42.2423515-93.6679764,42.1213341-99.0831146"/>
				</g>
				<g id="g2592" transform="matrix(1.25,0,0,-1.25,-155.67629,885.73398)">
					<path id="path2594" class="st0" d="M3.4948068-93.2204971c-0.2366188-0.4912949-0.6087062-0.5888367-0.845325-0.6285706       c-0.2348125-0.0397415-0.3142877-0.1770172-0.5888376-0.5111694c-0.27455-0.3341599-0.6087064-0.8435211-1.8080564-2.5937729       c-1.1975439-1.7484512-4.7937875-1.0801392-6.7969193-0.6683197c-2.0031309,0.4136353-2.2993565,1.0422134-2.4565001,2.4366379       c-0.1571436,1.396225,0.8651934,2.2216873,1.1596127,2.358963c0.2944188,0.1372757,1.5913062,0.6484375,2.396894,1.3546829       s2.1024749,0.8453293,2.299356,0.8453293c0.195075,0,0.7261128,0.0397339,2.4944315,0.236618       c1.7683191,0.195076,3.5565066-0.2763596,4.7739191-0.6502533c1.0259504-0.3142853,3.0814629-1.4630585,4.0676756-2.0175781       v23.8641739c0,1.475708-1.1957378,2.6732483-2.6732502,2.6732483H2.7795317       c0.9789877-0.8272552,2.454694-2.4763641,2.7021501-4.1272812c0.3106751-2.0609283-1.9922938-2.7473068-2.1819501-2.8141327       c-0.18785-0.0668335-0.2691312-0.1083755-0.2691312-0.1083755C2.3442254-72.143364,2.9637692-71.523819,3.2473505-71.106575       c0.281775,0.417244-0.1354687,0.619545-0.5671625,0.8092041c-0.4298875,0.187851-0.5780001,0.3756943-0.6448314,0.6050873       c-0.0686374,0.2294006-0.1083748,0.5527191-0.2691312,0.8886795c-0.1625625,0.3377686-0.4714314,0.390152-0.7550125,0.417244       c-0.2817751,0.027092-0.5111688,0.1896591-0.6737313,0.229393c-0.1607562,0.0397339-0.4027936,0.0397339-0.4027936,0.0397339       l0.0126437-0.229393c0,0-0.7802999,0.4046021-1.5353124,0.9573135       c-0.5364567,0.3937607-0.6773437,0.5220108-0.8904814,0.8688049h-1.1885126       c0.0650249-0.3160934,0.1733999-0.4985199,0.27455-0.6394119c0.1354687-0.1896515-0.229394-0.7008209-0.5780001-0.8073883       c-0.3504131-0.1083755-1.1596129,0.1463013-1.1596129,0.1463013c-1.1433563-0.3088684-1.1036191-0.1210175-2.4637251-0.3215103       c-1.3601069-0.202301-1.6021438-1.105423-1.8441815-1.6563339c-0.243844-0.5527115,0.18785-0.3504105-0.458787-1.2661819       c-0.6466379-0.9157639-2.0338383-1.2137985-2.5991936-1.1993484c-0.5653582,0.0126419-0.390151,0.0812836-0.3630571-1.6960678       c0.0270948-1.7773514,0.2817755-1.5353165,0.8760309-1.6834259c0.5924501-0.1481094,0.8200388,0.646637,0.9157686,0.7676544       c0.0939255,0.1210175,0.1065693,0.2835846-0.027092,0.2962265c-0.6574764,0.0650253-1.051239,0.202301-1.2390881,0.3775101       c-0.18785,0.1752014,0.0812798,0.5238113,0.3901491,0.7405624c0.3088684,0.2149429,1.2390881,0.7134628,1.5082197,0.8344879       c0.2691307,0.1210175,1.0512371,0.3756943,1.4016495,0.4443359c0.3504124,0.0668335,0.4027939-0.2420425,0.4840746-0.4046021       c0.0704441-0.1408844,0.0270948-0.2962265,0.3359632-0.256485c1.8351498,0.2402267,2.2361374-0.0523834,2.3571563-0.0397415       c0.1210184,0.0144501,0.2835813,0.1481171,0.3106747,0.3775101c0.0252876,0.2275848-0.6195436,0.3630524-0.9157686,0.4443359       s-1.9941001,0.1083755-1.9941001,0.1083755s-0.4298878,0.3359604-0.5111694,1.1433563       c-0.0812798,0.8073959,1.9525576,1.6292343,2.6786699,1.8315353c0.7279186,0.202301,2.4926252,0.4587936,4.4975624,0.1896591       c2.0085504-0.2691345,2.8556814-1.5226669,3.2060943-2.8972244c0.3504125-1.3727493-0.7134688-1.8026428-0.8760313-1.8170853       c-0.1607563-0.0126495-0.5111688-0.3504181-0.6592811-0.6050949c-0.1481126-0.2564926-0.6195441-0.6069031-0.9555064-0.8092041       c-0.3377688-0.2004929-0.8489376-0.646637-0.8489376-0.646637s-0.0126437-0.3359604-0.4316939-0.4985275       c-0.4172437-0.1607513-0.7261124,0.6881866-0.9826,1.25354c-0.2546813,0.5653534-0.4840753,0.8092041-0.700825,1.2517319       c-0.2149439,0.4443359-0.5653567,0.5400696-0.699019,0.5400696c-0.1354685,0-0.1752067-0.229393-0.1752067-0.592453       c0-0.3648605-0.3359623-0.7279129-0.9031248-1.0909729c-0.5653558-0.3648605-1.7105188,0.2546844-1.8441815,0.3088684       c-0.135468,0.0541916-0.7802997,0.3106766-0.9699559,0.3919601c-0.18785,0.0794754-0.2564878,0.2004929-0.417243,0.3901443       c-0.1625633,0.187851-0.4569817-0.1354675-0.5527134-0.202301c-0.0939255-0.068634-0.2275877-0.1878433,0.0144501-0.4985199       c0.2420378-0.3088684,1.0096941-0.565361,1.3727503-0.6737366c0.364862-0.1065674,0.7676558-0.5924454,0.9844065-0.7676544       c0.2149439-0.1752014,0.4443374-0.3377686,0.5924492-0.2420349c1.0006633,0.6376038,2.2216878,0.8091965,2.4221816,0.8091965       c0.2023001,0,1.0512378-0.0144501,0.6339941-1.307724c-0.5725818-1.7755432-2.4384379-2.1404037-3.8780193-2.1945953       C-8.899682-78.7415924-9.6402435-78.37854-9.7215252-78.37854c-0.0794754,0-0.0939255-0.1607513-0.0541878-0.1607513       c0.041544,0,0.5129747-0.3377686,0.8633881-0.5798111c0.3486052-0.2420349,0.9410558-0.6195374,1.1848998-0.6195374       c0.2420373,0,1.0367875,0.2691269,1.3059192,0.3377686c0.2691307,0.0668259,0.9284124,0.2275848,1.454031,0.3901443       c0.5256186,0.160759,2.5450063,1.7899933,2.9080625,2.1548615c0.3648628,0.3630524,0.6466377,1.2119904,0.7821065,1.2517319       c0.1336622,0.0397339,0.3901497-0.175209,0.5924501-0.202301c0.2023-0.0252914,0.6321874,0.5798035,0.7405623,1.0114975       c0.1083751,0.4298859,0.1354688,0.4840775,0.2564877,0.5111694c0.1210186,0.027092,0.1607562-0.2691345,0.1607562-0.2691345       s0.1481125-0.7550125,0.0812812-1.8044434c-0.0668311-1.051239-0.1625626-1.3203659-0.4714313-2.2090378       c-0.3106751-0.8886795-1.3727498-0.982605-1.7231624-1.0909805s-1.226444-0.3901443-1.8459878-0.4985199       c-0.619544-0.106575-0.9428625,0.229393-1.3601065,0.417244c-0.1481118,0.0668259-0.9555058,0.2022934-1.0223374-0.0270996       c-0.2908058-0.9844055,1.454031-1.5208588,1.7358065-1.5876923c1.8477938-0.4407272,4.418088,0.4443359,4.5517502,1.5479584       c0.2041061,1.6635513,0.39015,1.8586273,0.6069,2.1006699c0.2149436,0.2420349,0.79475,0.0397339,0.79475,0.0397339       c0.2149436,0.2167511,1.2246377,0.9573135,1.2246377,0.9573135s0.3233187,0.160759,0.1607561,0.417244       c-0.1607561,0.2546844-0.2691312,1.2914734,1.0115004,1.1578064c1.2788248-0.1354675,1.7087121-1.9381027,1.7087121-1.9381027       s0.5129752-1.0656891,0.1481128-3.7714539c-0.3630562-2.7057648-3.9719441-5.4819717-7.257513-6.5169525       c-3.2855687-1.0367889-4.8479757-0.917572-5.2525759-0.917572c-0.4027939,0-1.2119937,0.3233185-1.4811244,0.3775024       c-0.2691312,0.0541916-0.9555068,0.5129776-1.1849008,0.6069031c-0.229393,0.0939255-1.022337,0.4985275-1.1975431,0.5780029       c-0.1752071,0.0812759-0.7947493,0.4714279-1.1578064,0.7279129c-0.3648615,0.2546844-0.458787,0.5256195-0.5798063,0.794754       c-0.1210194,0.2691269-0.7803001,0.7929459-0.8615818,0.8615799c-0.0812817,0.0668335,0,0.175209,0,0.175209       c0.7532063-0.3233185,5.8432193-1.0367889,6.2478194-1.051239c0.4046001-0.0126419,2.2487812-0.0668335,2.490819-0.0668335       s0.6737313-0.1481094,0.6863751,0.1625671c0.0144501,0.3088684-1.4124875,0.5238113-1.5750504,0.5382614       c-0.1607556,0.0126419-0.8742251,0.027092-1.3998437,0.0939255c-0.5256186,0.0668259-1.7918,2.0338364-1.9670062,2.2885132       c-0.1733999,0.2564926-0.2420378,0.1896591-0.5653563,0.3504181c-0.3233185,0.1625595-1.454031,1.0367813-1.5895004,1.1867065       c-0.1336622,0.1463013,0.1083746,0.7116623-0.0252876,0.8597717c-0.1354685,0.1499176-0.5671616-0.0921173-0.9067383-0.2456512       c-0.8037806-0.3630524-1.1000051,0.0523834-1.1000051,0.0523834l-1.1000061,1.1541901l-0.2619076-0.5761871       c0,0,2.7762079-2.2542038,3.5619268-2.8827744c0.7875242-0.6285782,0.2095242-0.8381042,0.2095242-0.8381042       s-0.5761938-0.6285782-0.785718-0.680954c-0.2095251-0.0523834-1.885726,0.2619019-3.1952562,0.6285706       c-1.3095322,0.3666687-1.7285833,0.7857208-3.0381126,1.9381104c-1.3095322,1.1523895-1.8333454,4.1381149-1.6762009,4.7161179       c0.1571426,0.5761948,0.2095242,1.4666748,0.104763,1.7285843c-0.104763,0.2619019-0.3142891,1.1523819,0.1571426,1.1523819       s0.8381004-1.0476227,1.9381065-2.3047714s2.3047762-1.6762009,2.776206-1.414299       c0.4714308,0.2619095-0.1571436,1.0476303-0.4190502,1.5190582c-0.2619057,0.4714355-0.2095232,0.6285782-1.2571487,1.9381104       s-0.3142891,2.3047714-0.104763,2.776207c0.2095251,0.4714279,0.8380995,1.361908,0.995245,2.8303909       c0.0848932,0.7839127,0.3937616,1.3131409,0.8489361,1.7809601h-11.1680441       c-1.4775143,0-2.6732502-1.1975403-2.6732502-2.6732483v-9.5044861       c0.7297249-0.2438431,2.3517361-0.8019791,2.6425438-1.0403976c0.3775063-0.3088684,3.722681-2.8358154,3.5962448-7.3658905       c-0.0126438-0.4840775,0.1517239-0.6412201,0.3630562-0.87603c0.1210175-0.133667,1.2932739-1.2661819,1.0909748-1.9652023       c-0.5382633,0.7947464-1.0765266,1.2119904-1.2390881,1.2932739c-0.1607571,0.0812836-0.3359623,0.175209-0.4569817-0.1228256       c-0.1210194-0.2944183-0.229393-1.0909729-1.8315372-0.8615799c-1.4684811,0.2113342-2.6786671,0.4605942-4.1652126,2.4781723       v-11.4624634c0-1.4757004,1.1957359-2.6732483,2.6732502-2.6732483h2.1313763       c0.2348099,0.4786606,0.3684731,0.787529,0.5454845,1.1975479c0.2546825,0.5888367,1.0801392,2.6913071,1.4739017,3.3596191       c0.3919563,0.6683121,0.9627304,1.5515747,0.9627304,1.5515747s-0.1770115,1.396225-0.1372738,2.2018127       c0.0379314,0.8055878,0.4714317,2.5937805,0.4714317,2.5937805s0.1571426,0.2926102,0.0776691,0.6087036       c-0.0776691,0.3142853-0.1968822,0.646637-0.1174088,1.2174149c0.0776691,0.5689697,0.3341579,1.4540329,0.7857208,1.8658524       c0.4515629,0.4118271,0.7658501,0.6484451,1.0205307,0.6285782c0.2564869-0.0198669,0.6484432-0.3919601,1.1596127-1.5913086       c0,0-0.2745495-0.0379333-0.4912987,0.0198669c-0.2149448,0.0596085-0.0776691-0.1174011-0.0379333-0.1770096       c0.0379333-0.0578003,0.5491009-0.451561,0.2944183-0.9428635c-0.256485-0.4912949-1.4811249-1.968811-1.2192192-2.317421       c0.1770134-0.236618,0.2763577-0.0198669,0.5509071,0.2745514c0.2745514,0.2944183,0.8832569,1.0024719,0.9826012,0.9627304       c0.097538-0.0397339-0.1968803-1.0620728-1.2571507-2.1620789c0,0,0.2944202-0.1372757,0-0.6863708       c-0.2944183-0.5509109-0.7279205-1.1198807-0.7857189-1.2372818c-0.0596066-0.1192169-0.0596066-0.3937683,0.1174068-0.2366257       c0.1770115,0.1571503,1.8459873,1.4919662,3.4770308,1.4919662c1.1794806,0,1.2788248-0.3630524,1.4937696-0.4714279       c0.195075-0.0975418,0.4912987-0.431694,0.5490999-0.6087112c0.0596066-0.1752014,0.1372757-0.3124771,0.4316931-0.4118271       c0.2962255-0.0975342,1.2589569-0.3341522,1.3962326-1.591301c0,0,0.5111675-0.6285782-0.1192131-1.5913086       c0,0,4.9238381,0.6628952,7.0118623-3.9484634H5.517807c1.4775124,0,2.6732502,1.1975479,2.6732502,2.6732483v5.1550446       c-0.8344874,0.493103-2.6407375,0.7170792-2.8881941,0.7170792       C5.0066381-92.7490616,3.7314255-92.7291946,3.4948068-93.2204971 M-17.958025-82.0560608       c-0.1571445-0.0397415-0.3377705,0.0361252-0.5852261-0.2113342c-0.0794754-0.0776672-0.1770115-0.2510681-0.1824322-0.4226608       c-0.0144501-0.5111694-1.119875,0.0198669-1.2571487,0.0632172c-0.3522186,0.1101837-0.9031258,0.4479523-2.1205387,1.8225098       c-1.2192192,1.376358-1.6509132,4.2049484-1.690649,5.3248215c-0.0397377,1.1198807,0.4515629,3.1627426,1.905592,5.0882111       c1.4540329,1.9254608,3.9882011,2.2596207,4.3223591,2.2596207c0.3341541,0,0.6484432-0.0397415,0.6683121-0.2366257       c0.0198669-0.1968765-0.0397396-0.1968765-0.0397396-0.4316864c0,0,0.1770153-0.4317017,0.1174088-1.1198807       c-0.1336632-1.5696335-1.6292381-2.790657-2.3571568-3.3993607c-0.7261143-0.6087112-0.6484451-1.414299-0.6285744-2.2198868       c0.0198669-0.8037796,0.6484413-3.4770279,0.785717-3.9285889s1.0259495-2.0085526,1.1650314-2.2054291       C-17.7177963-81.870018-17.8026886-82.0163269-17.958025-82.0560608 M-14.0583324-90.2961731       c-0.7947493,0.5653534-1.2517319,1.6292343-1.7358055,3.0037918c-0.4858818,1.3727493-0.7676563,2.3300629-0.9844074,2.9477997       c-0.2149448,0.619545-0.3630562,0.6737289-0.3901482,0.8362961c-0.0270958,0.1607513,0.027092,0.2546768,0.0939255,0.3215103       c0,0,1.1848974-0.187851,2.1693039-0.6321869c0.9826012-0.4443359,0.9555073-0.5256195,1.8026381-1.0909729       c0.848938-0.565361,1.1867075-1.7358093,1.4142942-2.1675034c0.229393-0.431694,1.0133066-0.7604294,1.1216812-0.814621       c0.1083755-0.0523758,0.4605932-0.3088684,0.4605932-0.3088684c3.4210382-1.3059158,5.7167826-1.4088745,5.8251576-1.4359665       c0.1083751-0.0252838,0.1607556-0.1210175,0.1607556-0.1210175c-0.3233185-0.4967194-3.3668499-0.592453-3.3668499-0.592453       s-1.0494308,0.027092-2.7725935-0.4714279C-11.9847565-91.318512-13.2635822-90.8615341-14.0583324-90.2961731"/>
				</g>
				<g id="g2596" transform="matrix(1.25,0,0,-1.25,-85.474156,891.73998)">
					<path id="path2598" class="st0" d="M48.7751846-97.0943527c-10.9783897,0-13.7744637,6.8836212-13.7744637,14.3127289       c0,7.3622742,2.8683243,14.2476959,13.8412971,14.2476959c10.8374977,0,13.8340683-6.8854218,13.8340683-14.2476959       C62.6760864-90.277565,59.6795158-97.0943527,48.7751846-97.0943527 M48.8420181-73.3060379       c-6.4736023,0-7.9059601-4.224823-7.9059601-9.4755859c0-5.3157959,1.4323578-9.5424194,7.8391266-9.5424194       c6.5386276,0,7.9709816,4.15979,7.9709816,9.5424194C56.7461662-77.5994949,55.4528923-73.3060379,48.8420181-73.3060379"/>
				</g>
			</g>
		</g>
	</g>
</switch>
</svg>